<svg width="138" height="138" viewBox="0 0 138 138" fill="none" xmlns="http://www.w3.org/2000/svg">
<g clip-path="url(#clip0_1_6)">
<path d="M133.808 54.1592C128.617 45.6592 122.07 38.0665 114.425 31.6825L130.525 15.5825C131.572 14.498 132.152 13.0456 132.139 11.5379C132.126 10.0303 131.521 8.58814 130.455 7.52204C129.389 6.45595 127.947 5.85122 126.439 5.83812C124.931 5.82502 123.479 6.40459 122.395 7.452L104.886 24.9837C94.032 18.537 81.6237 15.1769 69 15.2662C33.4018 15.2662 13.1158 39.6347 4.19175 54.1592C1.43479 58.6184 -0.0255585 63.7574 -0.0255585 69C-0.0255585 74.2426 1.43479 79.3816 4.19175 83.8407C9.3826 92.3408 15.9303 99.9335 23.575 106.318L7.475 122.418C6.92582 122.948 6.48777 123.582 6.18642 124.284C5.88507 124.985 5.72645 125.74 5.71981 126.503C5.71318 127.267 5.85867 128.024 6.14778 128.731C6.4369 129.437 6.86385 130.079 7.40373 130.619C7.94362 131.159 8.58562 131.586 9.29227 131.875C9.99892 132.164 10.7561 132.31 11.5196 132.303C12.283 132.297 13.0376 132.138 13.7391 131.837C14.4406 131.535 15.0751 131.097 15.6055 130.548L33.1545 112.999C43.9948 119.445 56.3884 122.811 69 122.734C104.598 122.734 124.884 98.3652 133.808 83.8407C136.565 79.3816 138.026 74.2426 138.026 69C138.026 63.7574 136.565 58.6184 133.808 54.1592ZM13.9898 77.8205C12.3518 75.17 11.4842 72.1158 11.4842 69C11.4842 65.8842 12.3518 62.83 13.9898 60.1795C21.6603 47.725 38.9965 26.7663 69 26.7663C78.5466 26.7128 87.9591 29.0136 96.4045 33.465L84.8298 45.0398C79.3094 41.3747 72.691 39.7325 66.0976 40.3917C59.5042 41.0509 53.342 43.971 48.6565 48.6565C43.971 53.342 41.051 59.5042 40.3917 66.0976C39.7325 72.691 41.3747 79.3094 45.0398 84.8297L31.7573 98.1123C24.7141 92.4181 18.7038 85.554 13.9898 77.8205ZM86.25 69C86.25 73.575 84.4326 77.9626 81.1976 81.1976C77.9626 84.4326 73.575 86.25 69 86.25C66.4385 86.2401 63.9124 85.6503 61.6113 84.525L84.525 61.6112C85.6503 63.9124 86.2401 66.4384 86.25 69ZM51.75 69C51.75 64.425 53.5674 60.0374 56.8024 56.8024C60.0374 53.5674 64.425 51.75 69 51.75C71.5616 51.7599 74.0876 52.3497 76.3888 53.475L53.475 76.3887C52.3497 74.0876 51.7599 71.5615 51.75 69ZM124.01 77.8205C116.34 90.275 99.0035 111.234 69 111.234C59.4534 111.287 50.0409 108.986 41.5955 104.535L53.1703 92.9602C58.6906 96.6253 65.309 98.2675 71.9024 97.6083C78.4958 96.949 84.658 94.029 89.3435 89.3435C94.029 84.658 96.9491 78.4958 97.6083 71.9024C98.2675 65.309 96.6253 58.6906 92.9603 53.1702L106.243 39.8877C113.286 45.5819 119.296 52.446 124.01 60.1795C125.648 62.83 126.516 65.8842 126.516 69C126.516 72.1158 125.648 75.17 124.01 77.8205Z" fill="#F2F2F2"/>
</g>
<defs>
<clipPath id="clip0_1_6">
<rect width="138" height="138" fill="white"/>
</clipPath>
</defs>
</svg>
