<svg width="105" height="105" viewBox="0 0 105 105" fill="none" xmlns="http://www.w3.org/2000/svg">
<g clip-path="url(#clip0_1_3)">
<path d="M101.811 41.2081C95.025 30.1569 79.59 11.6156 52.5 11.6156C25.41 11.6156 9.97501 30.1569 3.18939 41.2081C1.0917 44.601 -0.0194397 48.5111 -0.0194397 52.5C-0.0194397 56.4889 1.0917 60.399 3.18939 63.7919C9.97501 74.8431 25.41 93.3844 52.5 93.3844C79.59 93.3844 95.025 74.8431 101.811 63.7919C103.908 60.399 105.019 56.4889 105.019 52.5C105.019 48.5111 103.908 44.601 101.811 41.2081ZM94.3513 59.2113C88.5238 68.6875 75.3331 84.6344 52.5 84.6344C29.6669 84.6344 16.4763 68.6875 10.6488 59.2113C9.40248 57.1946 8.74236 54.8707 8.74236 52.5C8.74236 50.1293 9.40248 47.8054 10.6488 45.7887C16.4763 36.3125 29.6669 20.3656 52.5 20.3656C75.3331 20.3656 88.5238 36.295 94.3513 45.7887C95.5976 47.8054 96.2577 50.1293 96.2577 52.5C96.2577 54.8707 95.5976 57.1946 94.3513 59.2113Z" fill="#F2F2F2"/>
<path d="M52.5 30.625C48.1735 30.625 43.9442 31.9079 40.3469 34.3116C36.7496 36.7153 33.9458 40.1317 32.2901 44.1288C30.6345 48.1259 30.2013 52.5243 31.0453 56.7676C31.8894 61.0109 33.9728 64.9087 37.032 67.968C40.0913 71.0272 43.9891 73.1106 48.2324 73.9547C52.4757 74.7987 56.8741 74.3655 60.8712 72.7099C64.8683 71.0542 68.2848 68.2504 70.6884 64.6531C73.0921 61.0558 74.375 56.8265 74.375 52.5C74.3681 46.7005 72.0612 41.1406 67.9603 37.0397C63.8594 32.9389 58.2995 30.6319 52.5 30.625ZM52.5 65.625C49.9041 65.625 47.3665 64.8552 45.2081 63.413C43.0498 61.9708 41.3675 59.921 40.3741 57.5227C39.3807 55.1244 39.1208 52.4854 39.6272 49.9394C40.1336 47.3934 41.3837 45.0548 43.2192 43.2192C45.0548 41.3837 47.3935 40.1336 49.9395 39.6272C52.4855 39.1208 55.1244 39.3807 57.5227 40.3741C59.921 41.3675 61.9709 43.0497 63.413 45.2081C64.8552 47.3665 65.625 49.9041 65.625 52.5C65.625 55.981 64.2422 59.3194 61.7808 61.7808C59.3194 64.2422 55.981 65.625 52.5 65.625Z" fill="#F2F2F2"/>
</g>
<defs>
<clipPath id="clip0_1_3">
<rect width="105" height="105" fill="white"/>
</clipPath>
</defs>
</svg>
