<svg width="512" height="512" viewBox="0 0 512 512" fill="none" xmlns="http://www.w3.org/2000/svg">
<g clip-path="url(#clip0_95_17)">
<path d="M256 341.333C273.664 341.333 288 355.669 288 373.333C288 390.997 273.664 405.333 256 405.333C238.336 405.333 224 390.997 224 373.333C224 355.669 238.336 341.333 256 341.333ZM277.333 298.667C277.333 286.699 286.037 272.533 297.131 266.411C329.131 248.768 346.347 212.587 339.989 176.341C333.952 141.909 305.685 113.664 271.275 107.648C246.144 103.275 220.523 109.995 201.152 126.272C181.781 142.549 170.667 166.357 170.667 191.637C170.667 203.413 180.224 212.971 192 212.971C203.776 212.971 213.333 203.413 213.333 191.637C213.333 179.008 218.901 167.083 228.587 158.933C238.421 150.656 250.965 147.371 263.915 149.653C280.704 152.597 295.019 166.912 297.963 183.701C301.227 202.261 292.821 220.053 276.544 229.035C251.883 242.624 234.667 271.253 234.667 298.667C234.667 310.464 244.224 320 256 320C267.776 320 277.333 310.464 277.333 298.667ZM512 405.333V106.667C512 47.8507 464.149 0 405.333 0H106.667C47.8507 0 0 47.8507 0 106.667V405.333C0 464.149 47.8507 512 106.667 512H405.333C464.149 512 512 464.149 512 405.333ZM405.333 42.6667C440.619 42.6667 469.333 71.3813 469.333 106.667V405.333C469.333 440.619 440.619 469.333 405.333 469.333H106.667C71.3813 469.333 42.6667 440.619 42.6667 405.333V106.667C42.6667 71.3813 71.3813 42.6667 106.667 42.6667H405.333Z" fill="#B7B7B7"/>
</g>
<defs>
<clipPath id="clip0_95_17">
<rect width="512" height="512" fill="white"/>
</clipPath>
</defs>
</svg>
